<svg width="600" height="816" viewBox="0 0 600 816" fill="none" xmlns="http://www.w3.org/2000/svg">
<g clip-path="url(#clip0_430_6752)">
<rect width="600" height="816" fill="#3C3CFF"/>
<g clip-path="url(#clip1_430_6752)">
<path d="M708.37 859.66C515.489 878.297 395.842 757.999 391.767 646.525C387.534 530.696 485.019 472.337 545.6 533.345C606.182 594.353 602.566 762.871 432.757 837.419C262.948 911.967 111.292 723.655 163.027 573.156C212.415 429.495 354.976 437.107 354.976 437.107C283.931 325.835 232.522 276.402 228.458 164.929C224.225 49.0991 321.71 -9.25917 382.291 51.7487C442.873 112.757 439.257 281.275 269.448 355.823C99.6274 430.359 -52.0279 242.048 -0.293581 91.5375C49.0943 -52.1129 191.656 -44.5122 191.656 -44.5122" stroke="#CC88FF" stroke-width="16.8406" stroke-linejoin="round"/>
</g>
</g>
<defs>
<clipPath id="clip0_430_6752">
<rect width="600" height="816" fill="white"/>
</clipPath>
<clipPath id="clip1_430_6752">
<rect width="728.177" height="923" fill="white" transform="translate(-19 -53)"/>
</clipPath>
</defs>
</svg>
