<svg width="460" height="54" viewBox="0 0 460 54" fill="none" xmlns="http://www.w3.org/2000/svg">
<path d="M0.5 16C0.5 7.43959 7.43959 0.5 16 0.5H444C452.56 0.5 459.5 7.43959 459.5 16V38C459.5 46.5604 452.56 53.5 444 53.5H16C7.43958 53.5 0.5 46.5604 0.5 38V16Z" fill="white"/>
<path d="M0.5 16C0.5 7.43959 7.43959 0.5 16 0.5H444C452.56 0.5 459.5 7.43959 459.5 16V38C459.5 46.5604 452.56 53.5 444 53.5H16C7.43958 53.5 0.5 46.5604 0.5 38V16Z" stroke="#E9E9E9" stroke-linecap="round"/>
<path d="M191.266 21.125V22.3906C191.266 23.7109 191.266 25.1562 190.891 27.1562H192.844V28.5625H187.234V34.4062H185.484V28.5625H179.969V27.1562H189.125C189.516 25.2344 189.531 23.7969 189.531 22.5312H181.484V21.125H191.266ZM205.125 20.8594V21.7969C205.125 22.7266 205.125 23.8828 204.844 25.3594H206.703V26.7344H193.797V25.3594H203.094C203.344 24.0781 203.383 23.0703 203.391 22.2344H195.391V20.8594H205.125ZM205.109 27.8594V31.6875H197.031V32.8906H205.469V34.25H195.297V30.3594H203.375V29.2188H195.281V27.8594H205.109ZM220.531 31.3125V32.75H207.625V31.3125H213.188V29.0156H209.156V24.3906H217.281V22.6406H209.125V21.2344H219V25.7656H210.891V27.5938H219.328V29.0156H214.906V31.3125H220.531ZM230.594 23.6562C230.578 26.25 231.938 28.8438 234.234 29.8281L233.203 31.2188C231.578 30.4688 230.383 28.9688 229.734 27.125C229.086 29.1172 227.875 30.7422 226.156 31.5469L225.094 30.0938C227.453 29.0781 228.828 26.375 228.828 23.6562V21.4062H230.594V23.6562ZM237 20.2656V34.4062H235.25V20.2656H237ZM244.141 22.7188C244.141 24.4531 245.266 26.1719 247.484 26.9062L246.609 28.25C245.031 27.7266 243.906 26.6641 243.297 25.3438C242.664 26.7891 241.492 27.9375 239.844 28.5L238.922 27.1562C241.203 26.4062 242.391 24.5781 242.391 22.7188V22.5469H239.406V21.1562H247.078V22.5469H244.141V22.7188ZM250.219 20.2656V23.7969H252.188V25.25H250.219V28.7812H248.484V20.2656H250.219ZM250.219 29.4375V34.3906H248.484V30.8281H240.812V29.4375H250.219ZM263.969 20.2656V25.8906H266.141V27.3281H263.969V34.3906H262.25V20.2656H263.969ZM261.156 22.4375V23.8281H252.828V22.4375H256.172V20.4688H257.906V22.4375H261.156ZM257.047 24.75C259.078 24.75 260.594 26.125 260.594 28.0781C260.594 30.0312 259.078 31.3906 257.047 31.3906C254.984 31.3906 253.469 30.0312 253.484 28.0781C253.469 26.125 254.984 24.75 257.047 24.75ZM257.047 26.1719C255.938 26.1719 255.141 26.9219 255.141 28.0781C255.141 29.2344 255.938 29.9688 257.047 29.9531C258.125 29.9688 258.922 29.2344 258.938 28.0781C258.922 26.9219 258.125 26.1719 257.047 26.1719ZM278.531 20.2656V34.3906H276.781V20.2656H278.531ZM274.312 21.7656C274.312 25.9688 272.688 29.5469 267.734 31.8906L266.828 30.5C270.523 28.7422 272.242 26.3516 272.547 23.1406H267.547V21.7656H274.312Z" fill="#0A0A0A"/>
<path fill-rule="evenodd" clip-rule="evenodd" d="M44 24.7417C44 24.1379 43.9403 23.5573 43.8295 23H35V26.2937H40.0455C39.8281 27.358 39.1676 28.2598 38.1747 28.8636V31H41.2045C42.9773 29.5177 44 27.3348 44 24.7417Z" fill="#4285F4"/>
<path fill-rule="evenodd" clip-rule="evenodd" d="M35.0433 34C37.4734 34 39.5108 33.2262 41 31.9063L38.0912 29.7379C37.2852 30.2565 36.2542 30.5629 35.0433 30.5629C32.699 30.5629 30.7148 29.0426 30.007 27H27V29.2391C28.481 32.0634 31.5248 34 35.0433 34Z" fill="#34A853"/>
<path fill-rule="evenodd" clip-rule="evenodd" d="M30 26.6923C29.8184 26.1579 29.7152 25.587 29.7152 25C29.7152 24.413 29.8184 23.8421 30 23.3077V21H26.9659C26.3509 22.2024 26 23.5628 26 25C26 26.4372 26.3509 27.7976 26.9659 29L30 26.6923Z" fill="#FBBC05"/>
<path fill-rule="evenodd" clip-rule="evenodd" d="M35.0058 19.4371C36.3211 19.4371 37.502 19.8732 38.4305 20.7295L41 18.2508C39.4485 16.8563 37.4206 16 35.0058 16C31.5038 16 28.4741 17.9366 27 20.7609L29.993 23C30.6975 20.9574 32.6725 19.4371 35.0058 19.4371Z" fill="#EA4335"/>
</svg>
