<svg width="600" height="816" viewBox="0 0 600 816" fill="none" xmlns="http://www.w3.org/2000/svg">
<g clip-path="url(#clip0_430_6834)">
<rect width="600" height="816" fill="#000096"/>
<path d="M682.416 -287.699L591.912 -197.195C591.912 -197.195 652.478 -151.382 659.855 -100.178C660.2 -93.8795 660.329 -87.4519 659.898 -80.8949C593.724 -105.484 524.833 -109.409 459.953 -90.946C378.854 -67.9104 314.88 -11.8741 292.966 55.2486C272.044 119.654 290.895 186.561 342.273 229.828C406.721 284.268 504.773 289.833 591.998 243.934C642.082 217.577 688.067 174.18 723.526 122.501C768.907 180.478 757.26 243.546 749.021 270.594C727.322 341.642 665.031 399.188 598.253 406.435C466.553 420.8 406.764 315.888 403.27 310.324C390.63 290.006 372.124 277.021 348.182 276.719C324.198 276.46 299.911 289.445 287.66 310.065C276.013 329.65 265.444 348.328 255.867 365.583C180.764 330.167 100.7 321.712 26.0709 342.936C-55.0286 365.972 -119.002 422.008 -140.916 489.131C-161.838 553.536 -142.987 620.443 -91.6527 663.753C-27.1614 718.15 70.8913 723.715 158.073 677.86C220.623 644.902 261.044 606.639 293.829 562.379C333.214 618.502 321.782 678.938 313.672 705.425C291.456 778.026 229.51 833.76 162.948 841.051C52.4714 853.086 -4.38454 775.697 -17.8005 754.343L-112.92 849.463C-63.7856 913.781 26.8905 990.826 167.909 975.426C235.592 968.049 308.452 934.703 357.543 885.526C395.721 847.349 425.443 799.077 442.051 744.767C469.314 655.557 454.733 554.269 382.865 465.923C438.945 509.492 524.401 547.41 607.269 535.979C726.244 519.586 840.258 431.542 877.443 309.892C913.592 191.522 878.521 72.8489 783.531 -7.47403C801.132 -67.5222 804.108 -179.034 682.459 -287.655L682.416 -287.699ZM529.492 125.175C485.577 148.211 447.27 142.862 428.807 127.246C419.015 119.007 416.427 109.603 420.654 96.8337C423.156 88.9826 428.937 80.0098 437.694 71.2528C450.851 58.0957 470.781 45.4994 496.62 38.1229C521.425 31.0913 563.139 25.7854 614.085 44.8955C589.022 81.6922 557.618 110.336 529.492 125.175ZM95.6094 559.057C51.6518 582.136 13.3883 576.744 -5.11789 561.171C-14.9102 552.932 -17.4554 543.485 -13.271 530.759C-10.7258 522.865 -4.94531 513.892 3.76856 505.178C16.9257 492.021 36.8554 479.425 62.7382 472.005C88.5779 464.715 132.794 459.236 186.803 481.409C163.293 513.202 136.763 537.402 95.6094 559.057Z" fill="#C8FF6E"/>
</g>
<defs>
<clipPath id="clip0_430_6834">
<rect width="600" height="816" fill="white"/>
</clipPath>
</defs>
</svg>
