<svg width="460" height="54" viewBox="0 0 460 54" fill="none" xmlns="http://www.w3.org/2000/svg">
<path d="M0 16C0 7.16344 7.16344 0 16 0H444C452.837 0 460 7.16344 460 16V38C460 46.8366 452.837 54 444 54H16C7.16343 54 0 46.8366 0 38V16Z" fill="#FEE500"/>
<path d="M180.312 21.6562C180.312 25.9219 179.141 29.5781 173.938 32.1719L172.984 30.8594C175.43 29.6484 176.883 28.2422 177.703 26.5625L173.312 26.9844L173.094 25.4844L178.234 25.1562C178.414 24.5 178.523 23.8047 178.578 23.0625H173.828V21.6562H180.312ZM184.031 20.2656V25.7969H186.125V27.2188H184.031V34.3594H182.297V20.2656H184.031ZM194.141 21.6562C194.141 25.9219 192.969 29.5781 187.766 32.1719L186.812 30.8594C189.258 29.6484 190.711 28.2422 191.531 26.5625L187.141 26.9844L186.922 25.4844L192.062 25.1562C192.242 24.5 192.352 23.8047 192.406 23.0625H187.656V21.6562H194.141ZM197.859 20.2656V25.7969H199.953V27.2188H197.859V34.3594H196.125V20.2656H197.859ZM207.047 21.0625C210.078 21.0625 212.312 22.5781 212.312 24.875C212.312 26.9922 210.492 28.4062 207.906 28.6562V31.25H213.531V32.6719H200.625V31.25H206.188V28.6562C203.617 28.4062 201.797 26.9922 201.812 24.875C201.797 22.5781 204.031 21.0625 207.047 21.0625ZM207.047 22.4688C204.984 22.4531 203.5 23.3906 203.516 24.875C203.5 26.4062 204.984 27.3125 207.047 27.3125C209.141 27.3125 210.609 26.4062 210.609 24.875C210.609 23.3906 209.141 22.4531 207.047 22.4688ZM227.359 31.3125V32.75H214.453V31.3125H220.016V29.0156H215.984V24.3906H224.109V22.6406H215.953V21.2344H225.828V25.7656H217.719V27.5938H226.156V29.0156H221.734V31.3125H227.359ZM237.422 23.6562C237.406 26.25 238.766 28.8438 241.062 29.8281L240.031 31.2188C238.406 30.4688 237.211 28.9688 236.562 27.125C235.914 29.1172 234.703 30.7422 232.984 31.5469L231.922 30.0938C234.281 29.0781 235.656 26.375 235.656 23.6562V21.4062H237.422V23.6562ZM243.828 20.2656V34.4062H242.078V20.2656H243.828ZM250.969 22.7188C250.969 24.4531 252.094 26.1719 254.312 26.9062L253.438 28.25C251.859 27.7266 250.734 26.6641 250.125 25.3438C249.492 26.7891 248.32 27.9375 246.672 28.5L245.75 27.1562C248.031 26.4062 249.219 24.5781 249.219 22.7188V22.5469H246.234V21.1562H253.906V22.5469H250.969V22.7188ZM257.047 20.2656V23.7969H259.016V25.25H257.047V28.7812H255.312V20.2656H257.047ZM257.047 29.4375V34.3906H255.312V30.8281H247.641V29.4375H257.047ZM270.797 20.2656V25.8906H272.969V27.3281H270.797V34.3906H269.078V20.2656H270.797ZM267.984 22.4375V23.8281H259.656V22.4375H263V20.4688H264.734V22.4375H267.984ZM263.875 24.75C265.906 24.75 267.422 26.125 267.422 28.0781C267.422 30.0312 265.906 31.3906 263.875 31.3906C261.812 31.3906 260.297 30.0312 260.312 28.0781C260.297 26.125 261.812 24.75 263.875 24.75ZM263.875 26.1719C262.766 26.1719 261.969 26.9219 261.969 28.0781C261.969 29.2344 262.766 29.9688 263.875 29.9531C264.953 29.9688 265.75 29.2344 265.766 28.0781C265.75 26.9219 264.953 26.1719 263.875 26.1719ZM285.359 20.2656V34.3906H283.609V20.2656H285.359ZM281.141 21.7656C281.141 25.9688 279.516 29.5469 274.562 31.8906L273.656 30.5C277.352 28.7422 279.07 26.3516 279.375 23.1406H274.375V21.7656H281.141Z" fill="#0A0A0A"/>
<path fill-rule="evenodd" clip-rule="evenodd" d="M35.0001 15.7333C28.9246 15.7333 24 19.538 24 24.2305C24 27.1489 25.9047 29.7216 28.8052 31.2518L27.5848 35.71C27.477 36.1039 27.9275 36.4179 28.2735 36.1896L33.623 32.6589C34.0745 32.7025 34.5332 32.7279 35.0001 32.7279C41.0751 32.7279 46 28.9233 46 24.2305C46 19.538 41.0751 15.7333 35.0001 15.7333Z" fill="black"/>
</svg>
