<svg width="600" height="816" viewBox="0 0 600 816" fill="none" xmlns="http://www.w3.org/2000/svg">
<g clip-path="url(#clip0_717_11645)">
<rect width="600" height="816" fill="#1E1464"/>
<g clip-path="url(#clip1_717_11645)">
<path d="M313.911 -51.8048C453.954 144.4 398.806 348.102 281.278 421.811C159.157 498.397 35.668 429.665 63.6956 326.463C91.7233 223.261 275.474 122.366 461.385 258.947C647.296 395.529 538.803 676.008 344.53 713.859C159.081 749.986 78.6081 591.67 78.6081 591.67C2.95246 737.4 -18.3134 823.522 -135.848 897.219C-257.969 973.805 -381.458 905.073 -353.431 801.871C-325.403 698.669 -141.652 597.774 44.2586 734.355C230.164 870.956 121.671 1151.43 -72.6133 1189.29C-258.05 1225.41 -338.535 1067.1 -338.535 1067.1" stroke="white" stroke-opacity="0.1" stroke-width="26" stroke-linejoin="round"/>
</g>
</g>
<defs>
<clipPath id="clip0_717_11645">
<rect width="600" height="816" fill="white"/>
</clipPath>
<clipPath id="clip1_717_11645">
<rect width="728.177" height="923" fill="white" transform="translate(-19 -53)"/>
</clipPath>
</defs>
</svg>
