<svg width="160" height="56" viewBox="0 0 160 56" fill="none" xmlns="http://www.w3.org/2000/svg">
<g clip-path="url(#clip0_6_334)">
<path d="M24.3795 20.5142C25.552 19.8477 26.545 19.0647 27.3316 18.1412C28.7763 16.4376 29.4971 14.4083 29.4971 12.0562C29.4971 10.1375 29.0215 8.36223 28.0734 6.73639C27.1252 5.11055 25.7105 3.79852 23.8322 2.79731C21.9508 1.79611 19.6268 1.29999 16.8572 1.29999H0V42.6274H17.0905C20.0575 42.6274 22.5819 42.0865 24.6577 41.0105C26.7334 39.9346 28.3157 38.503 29.4044 36.7188C30.4901 34.9346 31.0374 32.9501 31.0374 30.7534C31.0374 27.9679 30.194 25.5919 28.5131 23.6105C27.4333 22.3403 26.0335 21.3241 24.3765 20.5142H24.3795ZM15.9061 7.82726C17.569 7.82726 18.903 8.23969 19.914 9.06158C20.9219 9.88347 21.4244 11.1387 21.4244 12.8213C21.4244 14.504 20.9219 15.7024 19.914 16.5243C18.903 17.3462 17.569 17.7586 15.9061 17.7586H8.01285V7.82726H15.9061ZM21.3377 34.3368C20.249 35.5144 18.7355 36.1031 16.7974 36.1031H8.01584V24.2291H16.7974C18.1044 24.2291 19.2201 24.4921 20.1503 25.0241C21.0805 25.5501 21.7833 26.2674 22.2559 27.167C22.7315 28.0696 22.9678 29.0708 22.9678 30.1676C22.9678 31.7755 22.4234 33.1682 21.3377 34.3398V34.3368Z" fill="#3C3CFF"/>
<path d="M53.4239 30.5198C53.4239 32.2801 52.9693 33.6519 52.06 34.6352C51.1507 35.6185 49.8856 36.1026 48.2615 36.1026C47.1937 36.1026 46.2635 35.8874 45.4739 35.4571C44.6812 35.0267 44.086 34.3901 43.6942 33.5473C43.2964 32.7015 43.099 31.6913 43.099 30.5198V14.2315H35.2656V30.6961C35.2656 33.1648 35.819 35.3375 36.9286 37.2234C38.0383 39.1033 39.5697 40.5737 41.5287 41.6287C43.4878 42.6867 45.7311 43.2157 48.2644 43.2157C50.7978 43.2157 53.041 42.6927 55.0001 41.6556C56.9592 40.6185 58.4816 39.1571 59.5704 37.2772C60.6561 35.3973 61.2034 33.2006 61.2034 30.6931V14.2285H53.4269V30.5168L53.4239 30.5198Z" fill="#3C3CFF"/>
<path d="M147.066 14.2344L140.268 32.2531L133.715 14.2344H128.328H125.289L129.115 23.3737L136.155 40.185L129.324 54.5008H137.573L142.795 42.8629L155.552 14.2344H147.066Z" fill="#3C3CFF"/>
<path d="M131.558 14.2344H125.283C125.283 14.2344 125.795 17.9195 124.275 19.9488C124.069 20.1789 123.851 20.4061 123.608 20.6182C122.167 17.4742 119.914 14.9517 117.025 13.3438C113.415 11.3324 109.255 11.0575 106.168 12.6235C103.21 14.1298 101.544 17.1006 101.825 20.3792C102.172 24.4975 105.378 28.0869 109.993 29.5185C112.643 30.3404 115.742 30.4301 118.763 29.8682C118.326 33.4486 115.736 35.2299 114.513 35.8814C111.297 37.5909 107.143 37.4266 104.577 35.3644C99.5129 31.2998 101.077 25.5944 101.149 25.2806C101.415 24.1389 101.224 23.048 100.404 22.2082C99.5817 21.3684 98.2896 20.9769 97.15 21.2668C96.0673 21.5417 95.0533 21.8227 94.1231 22.0887C92.7473 18.2602 90.2647 15.1938 86.9418 13.3438C83.3316 11.3324 79.1712 11.0575 76.0845 12.6235C73.1264 14.1298 71.4604 17.1006 71.7386 20.3792C72.0885 24.4975 75.2949 28.0869 79.907 29.5185C83.218 30.5436 85.9458 30.6184 88.6167 30.2209C88.0365 33.5293 85.545 35.2269 84.3456 35.8635C81.0585 37.6089 76.9788 37.3937 74.4185 35.3405C70.1713 31.9304 70.8832 27.28 71.1583 26.0756H64.5632C64.0368 30.0057 64.5094 35.8157 69.932 40.1672C72.5342 42.2563 76.2161 43.6251 79.6228 43.6221C82.2698 43.6221 84.9737 42.9795 87.4323 41.6735C91.4701 39.5276 94.4761 35.5138 95.0473 29.9638C95.481 33.4158 97.129 37.6896 100.398 40.1642C105.091 43.7177 112.096 44.6173 117.602 41.6914C122.959 38.8432 125.857 33.5174 125.349 27.4444C128.041 25.974 132.01 22.2142 131.558 14.2374V14.2344ZM111.943 23.2393C109.622 22.5161 108.48 21.0038 108.381 19.8233C108.327 19.1986 108.564 18.7832 109.153 18.4873C109.512 18.302 110.023 18.1914 110.63 18.1914C111.543 18.1914 112.67 18.4455 113.822 19.0851C114.925 19.7007 116.556 20.9619 117.659 23.3888C115.515 23.7952 113.433 23.6996 111.943 23.2393ZM81.8601 23.2393C79.5361 22.5161 78.3965 21.0038 78.2948 19.8233C78.241 19.1986 78.4803 18.7832 79.0665 18.4873C79.4284 18.302 79.9399 18.1914 80.544 18.1914C81.4563 18.1914 82.5839 18.4455 83.7384 19.0851C84.887 19.7276 86.6098 21.0695 87.7134 23.7085C85.7962 23.9955 84.0375 23.9148 81.8601 23.2393Z" fill="#3C3CFF"/>
<path d="M155.552 43.2156C158.01 43.2156 160.003 41.2245 160.003 38.7684C160.003 36.3123 158.01 34.3213 155.552 34.3213C153.094 34.3213 151.102 36.3123 151.102 38.7684C151.102 41.2245 153.094 43.2156 155.552 43.2156Z" fill="#3C3CFF"/>
</g>
<defs>
<clipPath id="clip0_6_334">
<rect width="160" height="56" fill="white"/>
</clipPath>
</defs>
</svg>
