<svg width="460" height="54" viewBox="0 0 460 54" fill="none" xmlns="http://www.w3.org/2000/svg">
<path d="M0 16C0 7.16344 7.16344 0 16 0H444C452.837 0 460 7.16344 460 16V38C460 46.8366 452.837 54 444 54H16C7.16343 54 0 46.8366 0 38V16Z" fill="#03C75A"/>
<path d="M175.297 21.6719V29.4375C176.68 29.4219 177.953 29.3203 179.391 29.0156L179.641 30.4844C177.844 30.875 176.297 30.9375 174.516 30.9375H173.562V21.6719H175.297ZM185.156 20.2656V34.3906H183.5V20.2656H185.156ZM182.125 20.5625V33.7188H180.484V26.2344H177.531V24.8281H180.484V20.5625H182.125ZM198.547 20.2656V34.4062H196.797V20.2656H198.547ZM190.938 21.2969C193.062 21.2969 194.609 23.2344 194.625 26.2812C194.609 29.3594 193.062 31.2812 190.938 31.2812C188.797 31.2812 187.25 29.3594 187.25 26.2812C187.25 23.2344 188.797 21.2969 190.938 21.2969ZM190.938 22.8594C189.734 22.8594 188.922 24.125 188.922 26.2812C188.922 28.4531 189.734 29.7188 190.938 29.7188C192.125 29.7188 192.938 28.4531 192.938 26.2812C192.938 24.125 192.125 22.8594 190.938 22.8594ZM212.469 20.2656V34.4062H210.75V26.75H207.875V30.9844H201.156V21.3594H202.906V24.875H206.172V21.3594H207.875V25.3281H210.75V20.2656H212.469ZM202.906 29.5938H206.172V26.2344H202.906V29.5938ZM227.359 31.3125V32.75H214.453V31.3125H220.016V29.0156H215.984V24.3906H224.109V22.6406H215.953V21.2344H225.828V25.7656H217.719V27.5938H226.156V29.0156H221.734V31.3125H227.359ZM237.422 23.6562C237.406 26.25 238.766 28.8438 241.062 29.8281L240.031 31.2188C238.406 30.4688 237.211 28.9688 236.562 27.125C235.914 29.1172 234.703 30.7422 232.984 31.5469L231.922 30.0938C234.281 29.0781 235.656 26.375 235.656 23.6562V21.4062H237.422V23.6562ZM243.828 20.2656V34.4062H242.078V20.2656H243.828ZM250.969 22.7188C250.969 24.4531 252.094 26.1719 254.312 26.9062L253.438 28.25C251.859 27.7266 250.734 26.6641 250.125 25.3438C249.492 26.7891 248.32 27.9375 246.672 28.5L245.75 27.1562C248.031 26.4062 249.219 24.5781 249.219 22.7188V22.5469H246.234V21.1562H253.906V22.5469H250.969V22.7188ZM257.047 20.2656V23.7969H259.016V25.25H257.047V28.7812H255.312V20.2656H257.047ZM257.047 29.4375V34.3906H255.312V30.8281H247.641V29.4375H257.047ZM270.797 20.2656V25.8906H272.969V27.3281H270.797V34.3906H269.078V20.2656H270.797ZM267.984 22.4375V23.8281H259.656V22.4375H263V20.4688H264.734V22.4375H267.984ZM263.875 24.75C265.906 24.75 267.422 26.125 267.422 28.0781C267.422 30.0312 265.906 31.3906 263.875 31.3906C261.812 31.3906 260.297 30.0312 260.312 28.0781C260.297 26.125 261.812 24.75 263.875 24.75ZM263.875 26.1719C262.766 26.1719 261.969 26.9219 261.969 28.0781C261.969 29.2344 262.766 29.9688 263.875 29.9531C264.953 29.9688 265.75 29.2344 265.766 28.0781C265.75 26.9219 264.953 26.1719 263.875 26.1719ZM285.359 20.2656V34.3906H283.609V20.2656H285.359ZM281.141 21.7656C281.141 25.9688 279.516 29.5469 274.562 31.8906L273.656 30.5C277.352 28.7422 279.07 26.3516 279.375 23.1406H274.375V21.7656H281.141Z" fill="white"/>
<g clip-path="url(#clip0_28_31540)">
<path d="M38.171 27.0275L32.6096 19H28V34H32.829V25.9712L38.3904 34H43V19H38.171V27.0275Z" fill="white"/>
</g>
<defs>
<clipPath id="clip0_28_31540">
<rect width="15" height="15" fill="white" transform="translate(28 19)"/>
</clipPath>
</defs>
</svg>
