<svg width="22" height="22" viewBox="0 0 22 22" fill="none" xmlns="http://www.w3.org/2000/svg">
<path fill-rule="evenodd" clip-rule="evenodd" d="M20 10.7417C20 10.1379 19.9403 9.55733 19.8295 9H11V12.2937H16.0455C15.8281 13.358 15.1676 14.2598 14.1747 14.8636V17H17.2045C18.9773 15.5177 20 13.3348 20 10.7417Z" fill="#4285F4"/>
<path fill-rule="evenodd" clip-rule="evenodd" d="M11.0433 20C13.4734 20 15.5108 19.2262 17 17.9063L14.0912 15.7379C13.2852 16.2565 12.2542 16.5629 11.0433 16.5629C8.69901 16.5629 6.71479 15.0426 6.00701 13H3V15.2391C4.48101 18.0634 7.52484 20 11.0433 20Z" fill="#34A853"/>
<path fill-rule="evenodd" clip-rule="evenodd" d="M6 12.6923C5.81837 12.1579 5.71517 11.587 5.71517 11C5.71517 10.413 5.81837 9.8421 6 9.30769V7H2.96594C2.35088 8.20243 2 9.56275 2 11C2 12.4372 2.35088 13.7976 2.96594 15L6 12.6923Z" fill="#FBBC05"/>
<path fill-rule="evenodd" clip-rule="evenodd" d="M11.0058 5.43715C12.3211 5.43715 13.502 5.87318 14.4305 6.72952L17 4.25084C15.4485 2.85634 13.4206 2 11.0058 2C7.50378 2 4.47411 3.93659 3 6.76094L5.99302 9C6.6975 6.95735 8.67248 5.43715 11.0058 5.43715Z" fill="#EA4335"/>
</svg>
