<svg width="24" height="24" viewBox="0 0 24 24" fill="none" xmlns="http://www.w3.org/2000/svg">
<path d="M8.34 21.9999H3.67C2.75 21.9999 2 21.2499 2 20.3299V9.56994C2 9.02994 2.26 8.51994 2.7 8.20994L11.04 2.30994C11.62 1.89994 12.39 1.89994 12.97 2.30994L21.3 8.20994C21.74 8.51994 22 9.02994 22 9.56994V20.3299C22 21.2499 21.25 21.9999 20.33 21.9999H15.65C15.05 21.9999 14.5 21.6799 14.21 21.1699L12 17.1999C12 17.1999 14.64 12.6399 14.7 12.5299C14.78 12.3499 14.87 12.1599 14.92 11.9499C14.96 11.7999 14.99 11.6399 15.01 11.4699C15.17 9.93994 14.09 8.45994 12.58 8.17994C10.66 7.82994 8.98 9.28994 8.98 11.1499C8.98 11.4299 9.02 11.6899 9.09 11.9499C9.14 12.1599 9.22 12.3499 9.31 12.5299C9.37 12.6399 12.01 17.1999 12.01 17.1999L9.8 21.1699C9.5 21.6899 8.95 21.9999 8.36 21.9999H8.34Z" fill="#0A0A0A"/>
</svg>
