<svg width="24" height="24" viewBox="0 0 24 24" fill="none" xmlns="http://www.w3.org/2000/svg">
<path d="M11.9696 16.7301L13.9896 20.3401C14.2596 20.8101 14.7597 21.1001 15.2997 21.1001H19.5596C20.3996 21.1001 21.0796 20.4201 21.0796 19.5801V9.79009C21.0796 9.30009 20.8396 8.83009 20.4396 8.55009L12.8596 3.18009C12.3396 2.81009 11.6396 2.81009 11.1096 3.18009L3.52965 8.55009C3.12965 8.84009 2.88965 9.30009 2.88965 9.79009V19.5801C2.88965 20.4201 3.56965 21.1001 4.40965 21.1001H8.66965H8.63965C9.17965 21.1001 9.67965 20.8101 9.94965 20.3401L11.9696 16.7301ZM11.9696 16.7301C11.9696 16.7301 14.3696 12.5801 14.4196 12.4801C14.4996 12.3101 14.5696 12.1401 14.6196 11.9501C14.6596 11.8101 14.6896 11.6601 14.6996 11.5201C14.8496 10.1301 13.8696 8.78009 12.4896 8.52009C10.7396 8.20009 9.21965 9.53009 9.21965 11.2201C9.21965 11.4701 9.24965 11.7201 9.31965 11.9501C9.35965 12.1401 9.43965 12.3101 9.51965 12.4801C9.57965 12.5801 11.9696 16.7301 11.9696 16.7301Z" stroke="#A3A3A3" stroke-width="1.8" stroke-miterlimit="10" stroke-linecap="round"/>
</svg>
