<svg width="24" height="24" viewBox="0 0 24 24" fill="none" xmlns="http://www.w3.org/2000/svg">
<path d="M5.89984 21.0999C1.25984 16.4599 1.75984 12.3099 2.13984 11.0199C2.35984 10.2499 2.73985 9.56986 3.28985 9.00986C3.83985 8.44986 4.52984 8.07986 5.29984 7.85986C5.02984 8.76986 4.99985 9.79987 5.17985 10.8899C5.24985 11.3399 5.35985 11.7999 5.50985 12.2699C6.05985 13.9999 7.09984 15.7999 8.58984 17.4199C8.73984 17.5999 9.41984 18.2699 9.58984 18.4199C11.2998 19.9199 13.2698 20.6799 14.8898 20.5899C16.7998 20.3399 17.9498 18.7399 18.0498 17.4299C18.0998 16.4299 17.8298 15.2899 17.2598 14.1699" stroke="#A3A3A3" stroke-width="1.8" stroke-miterlimit="10" stroke-linecap="round"/>
<path d="M13.0498 14.4599L10.7598 15.0499C10.3798 15.1499 9.86977 14.6399 9.96977 14.2599L10.5598 11.9699C10.5798 11.8799 10.6298 11.7999 10.6898 11.7399L19.3598 3.06992C19.5598 2.86992 19.8798 2.86992 20.0798 3.06992L21.9498 4.93992C22.1498 5.13992 22.1498 5.45992 21.9498 5.65992L13.2798 14.3299C13.2198 14.3899 13.1298 14.4399 13.0498 14.4599Z" stroke="#A3A3A3" stroke-width="1.8" stroke-miterlimit="10" stroke-linecap="round"/>
<path d="M9.70981 8.05993C8.11981 7.55993 6.5898 7.47993 5.2998 7.85993C5.5198 7.08993 5.89981 6.40993 6.44981 5.84993C8.00981 4.28993 10.4398 3.83993 13.1098 4.77993" stroke="#A3A3A3" stroke-width="1.8" stroke-linecap="round" stroke-linejoin="round"/>
</svg>
