<svg width="24" height="24" viewBox="0 0 24 24" fill="none" xmlns="http://www.w3.org/2000/svg">
<path d="M5.89984 21.0999C1.25984 16.4599 1.75984 12.3099 2.13984 11.0199C2.35984 10.2499 2.73984 9.56986 3.28984 9.00986C3.83984 8.44986 4.52984 8.07986 5.29984 7.85986C5.02984 8.76986 4.99984 9.79987 5.17984 10.8899C5.24984 11.3399 5.35984 11.7999 5.50984 12.2699C6.05984 13.9999 7.09984 15.7999 8.58984 17.4199C8.73984 17.5999 9.41984 18.2699 9.58984 18.4199C11.2998 19.9199 13.2698 20.6799 14.8898 20.5899C16.7998 20.3399 17.9498 18.7399 18.0498 17.4299C18.0998 16.4299 17.8298 15.2899 17.2598 14.1699" stroke="#0A0A0A" stroke-width="1.8" stroke-miterlimit="10" stroke-linecap="round"/>
<path d="M13.1398 14.4399L10.7698 15.0499C10.3798 15.1499 9.84982 14.6199 9.94982 14.2299L10.5598 11.8599C10.5798 11.7699 10.6298 11.6799 10.6998 11.6199L19.6598 2.65994C19.8698 2.44994 20.1998 2.44994 20.4098 2.65994L22.3398 4.58994C22.5498 4.79994 22.5498 5.12994 22.3398 5.33994L13.3798 14.2999C13.3098 14.3699 13.2298 14.4099 13.1398 14.4399Z" fill="#0A0A0A" stroke="#0A0A0A" stroke-miterlimit="10" stroke-linecap="round"/>
<path d="M9.70004 8.05993C8.11004 7.55993 6.58004 7.47993 5.29004 7.85993C5.51004 7.08993 5.89004 6.40993 6.44004 5.84993C8.00004 4.28993 10.43 3.83993 13.1 4.77993L9.71004 8.05993H9.70004Z" fill="#0A0A0A" stroke="#0A0A0A" stroke-width="1.8" stroke-linecap="round" stroke-linejoin="round"/>
<path d="M9.70004 8.05993C8.11004 7.55993 6.58004 7.47993 5.29004 7.85993C5.51004 7.08993 5.89004 6.40993 6.44004 5.84993C8.00004 4.28993 10.43 3.83993 13.1 4.77993" stroke="#0A0A0A" stroke-width="1.8" stroke-linecap="round" stroke-linejoin="round"/>
</svg>
